# Rhino

v -3.0262918472290039 -1.9841153621673584 -2.7000000476837158
v -3.0262918472290039 30.415885925292969 -2.7000000476837158
v 29.373708724975586 -1.9841153621673584 -2.7000000476837158
v 29.373708724975586 30.415885925292969 -2.7000000476837158
v -3.0262918472290039 -1.9841153621673584 29.700000762939453
v -3.0262918472290039 30.415885925292969 29.700000762939453
v 29.373708724975586 -1.9841153621673584 29.700000762939453
v 29.373708724975586 30.415885925292969 29.700000762939453
v 29.373708724975586 -1.9841153621673584 -2.7000000476837158
v 29.373708724975586 -1.9841153621673584 29.700000762939453
v -3.0262918472290039 -1.9841153621673584 -2.7000000476837158
v -3.0262918472290039 -1.9841153621673584 29.700000762939453
v 29.373708724975586 30.415885925292969 -2.7000000476837158
v 29.373708724975586 30.415885925292969 29.700000762939453
v 29.373708724975586 -1.9841153621673584 -2.7000000476837158
v 29.373708724975586 -1.9841153621673584 29.700000762939453
v -3.0262918472290039 30.415885925292969 -2.7000000476837158
v -3.0262918472290039 30.415885925292969 29.700000762939453
v 29.373708724975586 30.415885925292969 -2.7000000476837158
v 29.373708724975586 30.415885925292969 29.700000762939453
v -3.0262918472290039 -1.9841153621673584 -2.7000000476837158
v -3.0262918472290039 -1.9841153621673584 29.700000762939453
v -3.0262918472290039 30.415885925292969 -2.7000000476837158
v -3.0262918472290039 30.415885925292969 29.700000762939453
vt 0.66520184278488159 0.3333333432674408
vt 0.3333333432674408 0.3333333432674408
vt 0.66520184278488159 0.66520184278488159
vt 0.3333333432674408 0.66520184278488159
vt 0.66520184278488159 0
vt 0.3333333432674408 0
vt 0.66520184278488159 0.3318684995174408
vt 0.3333333432674408 0.3318684995174408
vt 0.99853515625 0.3333333432674408
vt 0.66666668653488159 0.3333333432674408
vt 0.99853515625 0.66520184278488159
vt 0.66666668653488159 0.66520184278488159
vt 0.99853515625 0
vt 0.66666668653488159 0
vt 0.99853515625 0.3318684995174408
vt 0.66666668653488159 0.3318684995174408
vt 0.3318684995174408 0.3333333432674408
vt 0 0.3333333432674408
vt 0.3318684995174408 0.66520184278488159
vt 0 0.66520184278488159
vt 0.3318684995174408 0
vt 0 0
vt 0.3318684995174408 0.3318684995174408
vt 0 0.3318684995174408
vn 0 0 -1
vn 0 0 -1
vn 0 0 -1
vn 0 0 -1
vn 0 0 1
vn 0 0 1
vn 0 0 1
vn 0 0 1
vn 0 -1 0
vn 0 -1 0
vn 0 -1 0
vn 0 -1 0
vn 1 0 0
vn 1 0 0
vn 1 0 0
vn 1 0 0
vn 0 1 0
vn 0 1 0
vn 0 1 0
vn 0 1 0
vn -1 0 0
vn -1 0 0
vn -1 0 0
vn -1 0 0
f 2/2/2 4/4/4 3/3/3 1/1/1
f 6/6/6 5/5/5 7/7/7 8/8/8
f 10/10/10 12/12/12 11/11/11 9/9/9
f 14/14/14 16/16/16 15/15/15 13/13/13
f 18/18/18 20/20/20 19/19/19 17/17/17
f 22/22/22 24/24/24 23/23/23 21/21/21
