# Rhino

v -13.620235443115234 50.435783386230469 0
v -13.620235443115234 68.729728698730469 0
v 8.3797645568847656 50.435783386230469 0
v 8.3797645568847656 68.729728698730469 0
v -13.620235443115234 50.435783386230469 20
v -13.620235443115234 68.729728698730469 20
v 8.3797645568847656 50.435783386230469 20
v 8.3797645568847656 68.729728698730469 20
v 8.3797645568847656 50.435783386230469 0
v 8.3797645568847656 50.435783386230469 20
v -13.620235443115234 50.435783386230469 0
v -13.620235443115234 50.435783386230469 20
v 8.3797645568847656 68.729728698730469 0
v 8.3797645568847656 68.729728698730469 20
v 8.3797645568847656 50.435783386230469 0
v 8.3797645568847656 50.435783386230469 20
v -13.620235443115234 68.729728698730469 0
v -13.620235443115234 68.729728698730469 20
v 8.3797645568847656 68.729728698730469 0
v 8.3797645568847656 68.729728698730469 20
v -13.620235443115234 50.435783386230469 0
v -13.620235443115234 50.435783386230469 20
v -13.620235443115234 68.729728698730469 0
v -13.620235443115234 68.729728698730469 20
vt 0.32258063554763794 0.61764425039291382
vt 0.32258063554763794 0.9112430214881897
vt 0.67595452070236206 0.61764425039291382
vt 0.67595452070236206 0.9112430214881897
vt 0.32258063554763794 0.32258063554763794
vt 0.32258063554763794 0.61617940664291382
vt 0.67595452070236206 0.32258063554763794
vt 0.67595452070236206 0.61617940664291382
vt 0.32111579179763794 0.32258063554763794
vt 0 0.32258063554763794
vt 0.32111579179763794 0.67741936445236206
vt 0 0.67741936445236206
vt 0.99853515625 0.45635393261909485
vt 0.67741936445236206 0.45635393261909485
vt 0.99853515625 0.75141751766204834
vt 0.67741936445236206 0.75141751766204834
vt 0 0
vt 0 0.32111579179763794
vt 0.35483869910240173 0
vt 0.35483869910240173 0.32111579179763794
vt 0.99853515625 0
vt 0.67741936445236206 0
vt 0.99853515625 0.29506361484527588
vt 0.67741936445236206 0.29506361484527588
vn 0 0 -1
vn 0 0 -1
vn 0 0 -1
vn 0 0 -1
vn 0 0 1
vn 0 0 1
vn 0 0 1
vn 0 0 1
vn 0 -1 0
vn 0 -1 0
vn 0 -1 0
vn 0 -1 0
vn 1 0 0
vn 1 0 0
vn 1 0 0
vn 1 0 0
vn 0 1 0
vn 0 1 0
vn 0 1 0
vn 0 1 0
vn -1 0 0
vn -1 0 0
vn -1 0 0
vn -1 0 0
f 2/2/2 4/4/4 3/3/3 1/1/1
f 6/6/6 5/5/5 7/7/7 8/8/8
f 10/10/10 12/12/12 11/11/11 9/9/9
f 14/14/14 16/16/16 15/15/15 13/13/13
f 18/18/18 20/20/20 19/19/19 17/17/17
f 22/22/22 24/24/24 23/23/23 21/21/21
v 8.3797645568847656 50.435783386230469 0
v 8.3797645568847656 68.729728698730469 0
v 26.673707962036133 50.435783386230469 0
v 26.673707962036133 68.729728698730469 0
v 8.3797645568847656 50.435783386230469 40
v 8.3797645568847656 68.729728698730469 40
v 26.673707962036133 50.435783386230469 40
v 26.673707962036133 68.729728698730469 40
v 26.673707962036133 50.435783386230469 0
v 26.673707962036133 50.435783386230469 40
v 8.3797645568847656 50.435783386230469 0
v 8.3797645568847656 50.435783386230469 40
v 26.673707962036133 68.729728698730469 0
v 26.673707962036133 68.729728698730469 40
v 26.673707962036133 50.435783386230469 0
v 26.673707962036133 50.435783386230469 40
v 8.3797645568847656 68.729728698730469 0
v 8.3797645568847656 68.729728698730469 40
v 26.673707962036133 68.729728698730469 0
v 26.673707962036133 68.729728698730469 40
v 8.3797645568847656 50.435783386230469 0
v 8.3797645568847656 50.435783386230469 40
v 8.3797645568847656 68.729728698730469 0
v 8.3797645568847656 68.729728698730469 40
vt 0.24853515625 0.52331447601318359
vt 0 0.52331447601318359
vt 0.24853515625 0.77331447601318359
vt 0 0.77331447601318359
vt 0.24853515625 0.25
vt 0 0.25
vt 0.24853515625 0.5
vt 0 0.5
vt 0.5 0.25
vt 0.5 0.79516416788101196
vt 0.74853515625 0.25
vt 0.74853515625 0.79516416788101196
vt 0.75 0
vt 0.75 0.54662901163101196
vt 0.99853515625 0
vt 0.99853515625 0.54662901163101196
vt 0.25 0.25
vt 0.25 0.79516416788101196
vt 0.49853515625 0.25
vt 0.49853515625 0.79516416788101196
vt 0.54662901163101196 0
vt 0 0
vt 0.54662901163101196 0.24853515625
vt 0 0.24853515625
vn 0 0 -1
vn 0 0 -1
vn 0 0 -1
vn 0 0 -1
vn 0 0 1
vn 0 0 1
vn 0 0 1
vn 0 0 1
vn 0 -1 0
vn 0 -1 0
vn 0 -1 0
vn 0 -1 0
vn 1 0 0
vn 1 0 0
vn 1 0 0
vn 1 0 0
vn 0 1 0
vn 0 1 0
vn 0 1 0
vn 0 1 0
vn -1 0 0
vn -1 0 0
vn -1 0 0
vn -1 0 0
f 26/26/26 28/28/28 27/27/27 25/25/25
f 30/30/30 29/29/29 31/31/31 32/32/32
f 34/34/34 36/36/36 35/35/35 33/33/33
f 38/38/38 40/40/40 39/39/39 37/37/37
f 42/42/42 44/44/44 43/43/43 41/41/41
f 46/46/46 48/48/48 47/47/47 45/45/45
v -40.159877777099609 0.71588468551635742 0
v -40.159877777099609 40.254405975341797 0
v -23.636316299438477 0.71588468551635742 0
v -23.636316299438477 40.254405975341797 0
v -40.159877777099609 0.71588468551635742 35
v -40.159877777099609 40.254405975341797 35
v -23.636316299438477 0.71588468551635742 35
v -23.636316299438477 40.254405975341797 35
v -23.636316299438477 0.71588468551635742 0
v -23.636316299438477 0.71588468551635742 35
v -40.159877777099609 0.71588468551635742 0
v -40.159877777099609 0.71588468551635742 35
v -23.636316299438477 40.254405975341797 0
v -23.636316299438477 40.254405975341797 35
v -23.636316299438477 0.71588468551635742 0
v -23.636316299438477 0.71588468551635742 35
v -40.159877777099609 40.254405975341797 0
v -40.159877777099609 40.254405975341797 35
v -23.636316299438477 40.254405975341797 0
v -23.636316299438477 40.254405975341797 35
v -40.159877777099609 0.71588468551635742 0
v -40.159877777099609 0.71588468551635742 35
v -40.159877777099609 40.254405975341797 0
v -40.159877777099609 40.254405975341797 35
vt 0.49853515625 0.66390949487686157
vt 0 0.66390949487686157
vt 0.49853515625 0.87286472320556641
vt 0 0.87286472320556641
vt 0.49853515625 0.44260632991790771
vt 0 0.44260632991790771
vt 0.49853515625 0.65156155824661255
vt 0 0.65156155824661255
vt 0.44260632991790771 0.22130316495895386
vt 0 0.22130316495895386
vt 0.44260632991790771 0.43025839328765869
vt 0 0.43025839328765869
vt 0.5 0.44260632991790771
vt 0.5 0.88374781608581543
vt 0.99853515625 0.44260632991790771
vt 0.99853515625 0.88374781608581543
vt 0.44260632991790771 0
vt 0 0
vt 0.44260632991790771 0.20895522832870483
vt 0 0.20895522832870483
vt 0.5 0
vt 0.5 0.44114148616790771
vt 0.99853515625 0
vt 0.99853515625 0.44114148616790771
vn 0 0 -1
vn 0 0 -1
vn 0 0 -1
vn 0 0 -1
vn 0 0 1
vn 0 0 1
vn 0 0 1
vn 0 0 1
vn 0 -1 0
vn 0 -1 0
vn 0 -1 0
vn 0 -1 0
vn 1 0 0
vn 1 0 0
vn 1 0 0
vn 1 0 0
vn 0 1 0
vn 0 1 0
vn 0 1 0
vn 0 1 0
vn -1 0 0
vn -1 0 0
vn -1 0 0
vn -1 0 0
f 50/50/50 52/52/52 51/51/51 49/49/49
f 54/54/54 53/53/53 55/55/55 56/56/56
f 58/58/58 60/60/60 59/59/59 57/57/57
f 62/62/62 64/64/64 63/63/63 61/61/61
f 66/66/66 68/68/68 67/67/67 65/65/65
f 70/70/70 72/72/72 71/71/71 69/69/69
v 43.855342864990234 29.191202163696289 0
v 43.855342864990234 68.729728698730469 0
v 60.37890625 29.191202163696289 0
v 60.37890625 68.729728698730469 0
v 43.855342864990234 29.191202163696289 27
v 43.855342864990234 68.729728698730469 27
v 60.37890625 29.191202163696289 27
v 60.37890625 68.729728698730469 27
v 60.37890625 29.191202163696289 0
v 60.37890625 29.191202163696289 27
v 43.855342864990234 29.191202163696289 0
v 43.855342864990234 29.191202163696289 27
v 60.37890625 68.729728698730469 0
v 60.37890625 68.729728698730469 27
v 60.37890625 29.191202163696289 0
v 60.37890625 29.191202163696289 27
v 43.855342864990234 68.729728698730469 0
v 43.855342864990234 68.729728698730469 27
v 60.37890625 68.729728698730469 0
v 60.37890625 68.729728698730469 27
v 43.855342864990234 29.191202163696289 0
v 43.855342864990234 29.191202163696289 27
v 43.855342864990234 68.729728698730469 0
v 43.855342864990234 68.729728698730469 27
vt 0.48812991380691528 0.20399458706378937
vt 0 0.20399458706378937
vt 0.48812991380691528 0.40652433037757874
vt 0 0.40652433037757874
vt 0.48812991380691528 0
vt 0 0
vt 0.48812991380691528 0.20252974331378937
vt 0 0.20252974331378937
vt 0.3318684995174408 0.65205413103103638
vt 0 0.65205413103103638
vt 0.3318684995174408 0.85604870319366455
vt 0 0.85604870319366455
vt 0.99853515625 0
vt 0.66666668653488159 0
vt 0.99853515625 0.48812991380691528
vt 0.66666668653488159 0.48812991380691528
vt 0.3318684995174408 0.40798917412757874
vt 0 0.40798917412757874
vt 0.3318684995174408 0.6119837760925293
vt 0 0.6119837760925293
vt 0.66520184278488159 0.40798917412757874
vt 0.3333333432674408 0.40798917412757874
vt 0.66520184278488159 0.89465427398681641
vt 0.3333333432674408 0.89465427398681641
vn 0 0 -1
vn 0 0 -1
vn 0 0 -1
vn 0 0 -1
vn 0 0 1
vn 0 0 1
vn 0 0 1
vn 0 0 1
vn 0 -1 0
vn 0 -1 0
vn 0 -1 0
vn 0 -1 0
vn 1 0 0
vn 1 0 0
vn 1 0 0
vn 1 0 0
vn 0 1 0
vn 0 1 0
vn 0 1 0
vn 0 1 0
vn -1 0 0
vn -1 0 0
vn -1 0 0
vn -1 0 0
f 74/74/74 76/76/76 75/75/75 73/73/73
f 78/78/78 77/77/77 79/79/79 80/80/80
f 82/82/82 84/84/84 83/83/83 81/81/81
f 86/86/86 88/88/88 87/87/87 85/85/85
f 90/90/90 92/92/92 91/91/91 89/89/89
f 94/94/94 96/96/96 95/95/95 93/93/93
